<svg width="18" height="19" viewBox="0 0 18 19" fill="none" xmlns="http://www.w3.org/2000/svg">
<path d="M6.72479 11.0296C7.13392 11.0296 7.4656 11.3613 7.4656 11.7705V13.746C7.4656 14.1551 7.13392 14.4868 6.72479 14.4868C6.31565 14.4868 5.98398 14.1551 5.98398 13.746V11.7705C5.98398 11.3613 6.31565 11.0296 6.72479 11.0296Z" fill="#6D6E72"/>
<path d="M11.4166 11.7705C11.4166 11.3613 11.0849 11.0296 10.6758 11.0296C10.2666 11.0296 9.93496 11.3613 9.93496 11.7705V13.746C9.93496 14.1551 10.2666 14.4868 10.6758 14.4868C11.0849 14.4868 11.4166 14.1551 11.4166 13.746V11.7705Z" fill="#6D6E72"/>
<path fill-rule="evenodd" clip-rule="evenodd" d="M6.3786 1.27565C6.58317 0.921322 6.46177 0.468249 6.10744 0.26368C5.75312 0.059111 5.30005 0.180511 5.09548 0.534835L3.11998 3.95649C3.09039 4.00775 3.06762 4.06108 3.05138 4.11542H2.7738C1.27363 4.11542 0.0574951 5.33155 0.0574951 6.83172C0.0574951 7.68032 0.446634 8.43804 1.0562 8.93615L1.71497 13.4647L2.15624 15.5322C2.42062 16.7709 3.43187 17.7118 4.68643 17.8864C7.3495 18.2569 10.0511 18.2569 12.7141 17.8864C13.9687 17.7118 14.9799 16.7709 15.2443 15.5322L15.6856 13.4647L16.3444 8.93615C16.9539 8.43804 17.3431 7.68032 17.3431 6.83172C17.3431 5.33155 16.1269 4.11542 14.6268 4.11542H14.3492C14.3329 4.06108 14.3102 4.00775 14.2806 3.95649L12.3051 0.534835C12.1005 0.180511 11.6474 0.059111 11.2931 0.26368C10.9388 0.468249 10.8174 0.921322 11.022 1.27565L12.6615 4.11542H4.73905L6.3786 1.27565ZM14.7586 9.54488C14.7149 9.54697 14.671 9.54803 14.6268 9.54803H2.7738C2.7296 9.54803 2.68565 9.54697 2.64197 9.54488L3.17413 13.2031L3.60522 15.2229C3.73954 15.8522 4.25327 16.3302 4.89062 16.4189C7.41822 16.7706 9.98234 16.7706 12.5099 16.4189C13.1473 16.3302 13.661 15.8522 13.7953 15.2229L14.2264 13.2031L14.7586 9.54488ZM1.53912 6.83172C1.53912 6.14983 2.0919 5.59704 2.7738 5.59704H14.6268C15.3087 5.59704 15.8614 6.14983 15.8614 6.83172C15.8614 7.51362 15.3087 8.06641 14.6268 8.06641H2.7738C2.0919 8.06641 1.53912 7.51362 1.53912 6.83172Z" fill="#6D6E72"/>
</svg>
