<svg width="26" height="24" viewBox="0 0 26 24" fill="none" xmlns="http://www.w3.org/2000/svg">
<path d="M6.06931 2.47281C4.45175 2.6536 3.15699 3.93026 2.96984 5.53041C2.4671 9.82882 2.4671 14.1712 2.96984 18.4696C3.15699 20.0697 4.45175 21.3464 6.06931 21.5272C10.2768 21.9974 14.6296 21.9974 18.8371 21.5272C20.4547 21.3464 21.7494 20.0697 21.9366 18.4696C22.2978 15.3811 22.3995 12.2698 22.2416 9.16855C22.2375 9.08846 22.2675 9.01034 22.3242 8.95364L23.7924 7.48541C23.9623 7.31547 24.2527 7.42173 24.2707 7.66139C24.5478 11.3432 24.4717 15.045 24.0424 18.7159C23.7387 21.3123 21.654 23.3457 19.0726 23.6342C14.7086 24.1219 10.1978 24.1219 5.83382 23.6342C3.25238 23.3457 1.16774 21.3123 0.864064 18.7159C0.342187 14.2538 0.342187 9.74617 0.864064 5.28412C1.16774 2.68772 3.25238 0.65432 5.83382 0.365806C10.1978 -0.121935 14.7086 -0.121935 19.0726 0.365806C19.9818 0.467421 20.8294 0.785483 21.5592 1.26836C21.7028 1.36337 21.717 1.56526 21.5953 1.68702L20.4605 2.82183C20.3676 2.91466 20.2237 2.93027 20.108 2.86827C19.7215 2.66121 19.2921 2.52366 18.8371 2.47281C14.6296 2.00256 10.2768 2.00256 6.06931 2.47281Z" fill="#3499ED"/>
<path d="M25.2168 3.56236C25.6308 3.14838 25.6308 2.47719 25.2168 2.06321C24.8028 1.64923 24.1316 1.64923 23.7177 2.06321L11.7465 14.0344L8.25581 10.5437C7.84183 10.1297 7.17063 10.1297 6.75665 10.5437C6.34267 10.9577 6.34267 11.6289 6.75665 12.0429L10.9969 16.2831C11.4109 16.6971 12.0821 16.6971 12.4961 16.2831L25.2168 3.56236Z" fill="#3499ED"/>
</svg>
