<svg width="25" height="26" viewBox="0 0 25 26" fill="none" xmlns="http://www.w3.org/2000/svg">
<path fill-rule="evenodd" clip-rule="evenodd" d="M5.84253 1.34687C10.2136 0.858335 14.7317 0.858335 19.1028 1.34687C21.6884 1.63585 23.7764 3.67255 24.0806 6.27316C24.6033 10.7425 24.6033 15.2574 24.0806 19.7267C23.7764 22.3273 21.6884 24.364 19.1028 24.653C14.7317 25.1416 10.2136 25.1416 5.84252 24.653C3.25689 24.364 1.16886 22.3273 0.864699 19.7267C0.341975 15.2574 0.341975 10.7425 0.864699 6.27316C1.16886 3.67255 3.2569 1.63585 5.84253 1.34687ZM18.8669 3.4573C14.6526 2.98628 10.2927 2.98628 6.0784 3.4573C4.45821 3.63838 3.16134 4.91711 2.97389 6.51985C2.47034 10.8252 2.47034 15.1746 2.97389 19.48C3.16135 21.0828 4.45821 22.3615 6.07839 22.5426C10.2927 23.0136 14.6526 23.0136 18.8669 22.5426C20.4871 22.3615 21.784 21.0828 21.9714 19.48C22.475 15.1746 22.475 10.8252 21.9714 6.51985C21.784 4.91711 20.4871 3.63838 18.8669 3.4573Z" fill="#373A40"/>
</svg>
