<svg width="17" height="19" viewBox="0 0 17 19" fill="none" xmlns="http://www.w3.org/2000/svg">
<path fill-rule="evenodd" clip-rule="evenodd" d="M7.40223 0.384277C6.60651 0.384277 5.94275 0.9924 5.87327 1.78508C5.72799 3.4424 5.69122 5.10711 5.76308 6.76855C5.67634 6.77436 5.58961 6.78042 5.5029 6.78674L3.97083 6.89842C2.99158 6.96981 2.44417 8.0617 2.97284 8.88907C4.10034 10.6536 5.55314 12.1876 7.25382 13.4093L7.86761 13.8502C8.36525 14.2077 9.03553 14.2077 9.53317 13.8502L10.147 13.4093C11.8476 12.1876 13.3004 10.6536 14.4279 8.88907C14.9566 8.0617 14.4092 6.96981 13.43 6.89842L11.8979 6.78674C11.8112 6.78042 11.7244 6.77436 11.6377 6.76855C11.7096 5.1071 11.6728 3.44239 11.5275 1.78507C11.458 0.992398 10.7943 0.384277 9.99856 0.384277H7.40223ZM7.34421 7.44514C7.22725 5.60685 7.24909 3.76228 7.40959 1.92713H9.99119C10.1517 3.76228 10.1735 5.60685 10.0566 7.44514C10.0435 7.65123 10.1135 7.85398 10.2511 8.008C10.3887 8.16202 10.5822 8.25446 10.7885 8.26462C11.1211 8.281 11.4535 8.3013 11.7857 8.32552L12.8984 8.40663C11.9114 9.86031 10.6756 11.1298 9.24683 12.1562L8.70039 12.5487L8.15396 12.1562C6.72516 11.1298 5.48935 9.86031 4.5024 8.40663L5.61507 8.32552C5.94728 8.3013 6.27972 8.281 6.6123 8.26462C6.81856 8.25446 7.01213 8.16202 7.14969 8.008C7.28726 7.85398 7.35732 7.65123 7.34421 7.44514Z" fill="white"/>
<path d="M2.27174 14.5271C2.27174 14.1011 1.92636 13.7557 1.50031 13.7557C1.07426 13.7557 0.728882 14.1011 0.728882 14.5271V16.5843C0.728882 17.5784 1.53477 18.3843 2.52888 18.3843H14.8717C15.8658 18.3843 16.6717 17.5784 16.6717 16.5843V14.5271C16.6717 14.1011 16.3264 13.7557 15.9003 13.7557C15.4743 13.7557 15.1289 14.1011 15.1289 14.5271V16.5843C15.1289 16.7263 15.0138 16.8414 14.8717 16.8414H2.52888C2.38687 16.8414 2.27174 16.7263 2.27174 16.5843V14.5271Z" fill="white"/>
</svg>
