<svg width="19" height="16" viewBox="0 0 19 16" fill="none" xmlns="http://www.w3.org/2000/svg">
<path fill-rule="evenodd" clip-rule="evenodd" d="M0.712036 5.59917C0.712036 2.95259 3.14887 0.914795 6.00918 0.914795C7.48361 0.914795 8.78102 1.57352 9.71204 2.42585C10.6431 1.57352 11.9405 0.914795 13.4149 0.914795C16.2752 0.914795 18.712 2.95259 18.712 5.59917C18.712 7.41211 17.9006 9.00641 16.7765 10.3541C15.6542 11.6994 14.1863 12.8411 12.7807 13.7689C12.2439 14.1233 11.7008 14.4502 11.2037 14.6914C10.737 14.9179 10.2003 15.1253 9.71204 15.1253C9.22373 15.1253 8.68706 14.9179 8.22033 14.6914C7.72327 14.4502 7.18017 14.1233 6.64333 13.7689C5.2378 12.8411 3.76985 11.6994 2.64762 10.3541C1.52346 9.00641 0.712036 7.41211 0.712036 5.59917ZM6.00918 2.38485C3.87052 2.38485 2.25489 3.88342 2.25489 5.59917C2.25489 6.97465 2.8677 8.25527 3.85544 9.43936C4.84513 10.6258 6.17676 11.6726 7.52194 12.5605C8.03096 12.8965 8.5104 13.1824 8.9205 13.3814C9.36093 13.5951 9.61603 13.6553 9.71204 13.6553C9.80804 13.6553 10.0631 13.5951 10.5036 13.3814C10.9137 13.1824 11.3931 12.8965 11.9021 12.5605C13.2473 11.6726 14.5789 10.6258 15.5686 9.43936C16.5564 8.25526 17.1692 6.97465 17.1692 5.59917C17.1692 3.88342 15.5535 2.38485 13.4149 2.38485C12.1866 2.38485 11.0397 3.08403 10.3236 3.97145C10.1776 4.1524 9.9516 4.25845 9.71204 4.25845C9.47247 4.25845 9.24651 4.1524 9.10048 3.97145C8.38436 3.08403 7.23745 2.38485 6.00918 2.38485Z" fill="#6D6E72"/>
</svg>
