<svg width="19" height="16" viewBox="0 0 19 16" fill="none" xmlns="http://www.w3.org/2000/svg">
<path d="M5.99746 0.707153C3.13715 0.707153 0.700317 2.84586 0.700317 5.62351C0.700317 7.5397 1.59759 9.15294 2.78676 10.4893C3.97186 11.8211 5.50081 12.9389 6.88303 13.8746L9.26789 15.4888C9.52907 15.6656 9.87156 15.6656 10.1327 15.4888L12.5176 13.8746C13.8998 12.9389 15.4288 11.8211 16.6139 10.4893C17.803 9.15294 18.7003 7.5397 18.7003 5.62351C18.7003 2.84586 16.2635 0.707153 13.4032 0.707153C11.9287 0.707153 10.6313 1.3985 9.70032 2.29304C8.7693 1.3985 7.47189 0.707153 5.99746 0.707153Z" fill="#6D6E72"/>
</svg>
