<svg width="19" height="17" viewBox="0 0 19 17" fill="none" xmlns="http://www.w3.org/2000/svg">
<path fill-rule="evenodd" clip-rule="evenodd" d="M13.1118 0.164308H9.08671H9.08667C8.0179 0.164274 7.12667 0.164246 6.41915 0.25937C5.67236 0.359774 4.99812 0.580639 4.45631 1.12245C3.9145 1.66425 3.69363 2.3385 3.59323 3.08529C3.49811 3.79282 3.49814 4.68406 3.49817 5.75285V8.76246C3.49814 9.83125 3.49811 10.7225 3.59323 11.43C3.69363 12.1768 3.9145 12.8511 4.45631 13.3929C4.99812 13.9347 5.67236 14.1555 6.41915 14.2559C7.12667 14.3511 8.0179 14.351 9.08669 14.351H9.08672H13.1118H13.1118C14.1806 14.351 15.0718 14.3511 15.7793 14.2559C16.5261 14.1555 17.2004 13.9347 17.7422 13.3929C18.284 12.8511 18.5048 12.1768 18.6052 11.43C18.7004 10.7225 18.7003 9.83125 18.7003 8.76245V5.75286C18.7003 4.68406 18.7004 3.79282 18.6052 3.08529C18.5048 2.3385 18.284 1.66425 17.7422 1.12245C17.2004 0.580639 16.5261 0.359774 15.7793 0.25937C15.0718 0.164246 14.1806 0.164274 13.1118 0.164308H13.1118ZM5.71802 2.38416C5.87304 2.22914 6.10798 2.1016 6.65691 2.02779C7.23151 1.95054 8.00182 1.94865 9.14857 1.94865H13.0499C14.1967 1.94865 14.967 1.95054 15.5416 2.02779C16.0905 2.1016 16.3254 2.22914 16.4805 2.38416C16.6355 2.53918 16.763 2.77412 16.8368 3.32305C16.9141 3.89765 16.916 4.66796 16.916 5.81471V8.7006C16.916 9.84735 16.9141 10.6177 16.8368 11.1923C16.763 11.7412 16.6355 11.9761 16.4805 12.1311C16.3254 12.2862 16.0905 12.4137 15.5416 12.4875C14.967 12.5648 14.1967 12.5667 13.0499 12.5667H9.14857C8.00182 12.5667 7.23151 12.5648 6.65691 12.4875C6.10798 12.4137 5.87304 12.2862 5.71802 12.1311C5.563 11.9761 5.43546 11.7412 5.36165 11.1923C5.2844 10.6177 5.28251 9.84735 5.28251 8.7006V5.81471C5.28251 4.66796 5.2844 3.89765 5.36165 3.32305C5.43546 2.77412 5.563 2.53918 5.71802 2.38416ZM12.0736 4.40857C12.0736 3.61055 12.7206 2.96362 13.5186 2.96362C14.3166 2.96362 14.9635 3.61055 14.9635 4.40857C14.9635 5.2066 14.3166 5.85352 13.5186 5.85352C12.7206 5.85352 12.0736 5.2066 12.0736 4.40857ZM10.2781 5.95226C10.146 5.74102 9.9145 5.6127 9.66539 5.6127C9.41629 5.6127 9.18476 5.74102 9.05274 5.95226L6.64449 9.80546C6.50529 10.0282 6.49792 10.3089 6.62524 10.5386C6.75255 10.7683 6.99451 10.9108 7.25714 10.9108H14.9635C15.2372 10.9108 15.4874 10.7562 15.6097 10.5115C15.7321 10.2667 15.7057 9.97381 15.5415 9.75489L14.0966 7.82829C13.9601 7.64637 13.746 7.5393 13.5186 7.5393C13.2912 7.5393 13.0771 7.64637 12.9406 7.82829L12.1279 8.91196L10.2781 5.95226ZM1.42267 3.33704C1.82168 3.33704 2.14515 3.6605 2.14515 4.05951L2.14515 12.3344C2.14515 14.0635 3.54682 15.4651 5.27587 15.4651H12.9336C13.3326 15.4651 13.6561 15.7886 13.6561 16.1876C13.6561 16.5866 13.3326 16.9101 12.9336 16.9101H5.27587C2.7488 16.9101 0.700195 14.8615 0.700195 12.3344V4.05951C0.700195 3.6605 1.02366 3.33704 1.42267 3.33704Z" fill="#6D6E72"/>
</svg>
