<svg width="27" height="27" viewBox="0 0 27 27" fill="none" xmlns="http://www.w3.org/2000/svg">
<path fill-rule="evenodd" clip-rule="evenodd" d="M2.70032 13.1643C2.70032 7.08917 7.62519 2.16431 13.7003 2.16431C19.7754 2.16431 24.7003 7.08917 24.7003 13.1643C24.7003 19.2394 19.7754 24.1643 13.7003 24.1643C7.62519 24.1643 2.70032 19.2394 2.70032 13.1643ZM13.7003 0.164307C6.52062 0.164307 0.700317 5.9846 0.700317 13.1643C0.700317 20.344 6.52062 26.1643 13.7003 26.1643C20.88 26.1643 26.7003 20.344 26.7003 13.1643C26.7003 5.9846 20.88 0.164307 13.7003 0.164307ZM13.7003 5.84399C11.998 5.84399 10.618 7.22396 10.618 8.92624C10.618 10.6285 11.998 12.0085 13.7003 12.0085C15.4025 12.0085 16.7825 10.6285 16.7825 8.92624C16.7825 7.22396 15.4025 5.84399 13.7003 5.84399ZM7.53577 18.9435C7.53577 16.3901 9.60572 14.3202 12.1591 14.3202H15.2414C17.7948 14.3202 19.8647 16.3901 19.8647 18.9435C19.8647 19.7947 19.1748 20.4847 18.3236 20.4847H9.07689C8.22575 20.4847 7.53577 19.7947 7.53577 18.9435Z" fill="white"/>
</svg>
