<svg width="18" height="17" viewBox="0 0 18 17" fill="none" xmlns="http://www.w3.org/2000/svg">
<path fill-rule="evenodd" clip-rule="evenodd" d="M0.383828 2.52472C0.548603 1.11589 1.74226 0.0537109 3.16069 0.0537109H13.8356C14.0165 0.0537109 14.1913 0.119552 14.3273 0.238949L17.0703 2.64744C17.687 3.18891 18.0277 3.97886 17.9982 4.799L17.6564 14.3119C17.6036 15.782 16.3965 16.9464 14.9255 16.9464H2.99107C1.66983 16.9464 0.554392 15.9647 0.386613 14.6541C-0.106751 10.8004 -0.128004 6.90088 0.323326 3.04201L0.383828 2.52472ZM3.16069 1.54424C2.49847 1.54424 1.9412 2.04014 1.86427 2.69787L1.80377 3.21516C1.36652 6.95359 1.38711 10.7314 1.86508 14.4649C1.93762 15.0314 2.41986 15.4559 2.99107 15.4559H3.62414V11.2327C3.62414 10.2723 4.40269 9.49375 5.36309 9.49375H12.3189C13.2793 9.49375 14.0579 10.2723 14.0579 11.2327V15.4559H14.9255C15.5942 15.4559 16.1428 14.9266 16.1668 14.2584L16.5087 4.74548C16.5221 4.37269 16.3672 4.01362 16.0869 3.76749L13.561 1.54971V3.87939C13.561 4.83979 12.7825 5.61834 11.8221 5.61834H5.85994C4.89954 5.61834 4.12098 4.83979 4.12098 3.87939V1.54424H3.16069ZM5.61152 1.54424V3.87939C5.61152 4.01659 5.72274 4.12781 5.85994 4.12781H11.8221C11.9593 4.12781 12.0705 4.01659 12.0705 3.87939V1.54424H5.61152ZM12.5673 15.4559H5.11467V11.2327C5.11467 11.0955 5.22589 10.9843 5.36309 10.9843H12.3189C12.4561 10.9843 12.5673 11.0955 12.5673 11.2327V15.4559Z" fill="white"/>
</svg>
