<svg width="19" height="13" viewBox="0 0 19 13" fill="none" xmlns="http://www.w3.org/2000/svg">
<path fill-rule="evenodd" clip-rule="evenodd" d="M18.1112 11.307C18.3328 11.0772 18.3846 10.7324 18.2404 10.4476L17.5103 9.0057C15.85 5.72688 12.4871 3.66024 8.81189 3.66024H8.40804C8.38262 3.1069 8.34976 2.55381 8.30947 2.00113L8.24103 1.06217C8.18573 0.303647 7.33996 -0.120373 6.69909 0.28913C4.58338 1.64102 2.7441 3.38297 1.27928 5.42212L0.819095 6.06274C0.631265 6.32421 0.631265 6.67639 0.819095 6.93787L1.27928 7.57848C2.7441 9.61763 4.58338 11.3596 6.69909 12.7115C7.33996 13.121 8.18573 12.6969 8.24103 11.9384L8.30947 10.9995C8.35755 10.3399 8.39504 9.67977 8.42195 9.01932C10.5941 8.95564 12.7638 9.39361 14.7577 10.3139L17.257 11.4674C17.5469 11.6012 17.8896 11.5368 18.1112 11.307ZM15.9004 9.18918L15.3863 8.95191C12.9546 7.82961 10.2866 7.3558 7.6391 7.55914C7.25679 7.58851 6.9582 7.90151 6.94687 8.28478C6.92117 9.15394 6.8767 10.0227 6.81344 10.8904L6.8071 10.9774C5.1443 9.80366 3.68728 8.35958 2.49754 6.70335L2.35167 6.5003L2.49754 6.29725C3.68728 4.64103 5.1443 3.19694 6.8071 2.02322L6.81344 2.11018C6.8699 2.88475 6.9114 3.66012 6.93794 4.43588C6.95176 4.83988 7.28327 5.16024 7.6875 5.16024L8.81189 5.16024C11.7328 5.16024 14.4205 6.70291 15.9004 9.18918Z" fill="white"/>
</svg>
