<svg width="16" height="19" viewBox="0 0 16 19" fill="none" xmlns="http://www.w3.org/2000/svg">
<path fill-rule="evenodd" clip-rule="evenodd" d="M6.73788 14.1149C5.96427 14.1149 5.31895 13.5237 5.2514 12.753C5.11015 11.1417 5.07441 9.52326 5.14427 7.90797C5.05994 7.90232 4.97563 7.89643 4.89133 7.89028L3.40178 7.7817C2.44973 7.7123 1.91752 6.65073 2.43151 5.84635C3.5277 4.13084 5.53693 2.21078 7.19038 1.02305C7.67419 0.675504 8.32584 0.675505 8.80966 1.02305C10.4631 2.21078 12.4723 4.13083 13.5685 5.84635C14.0825 6.65073 13.5503 7.7123 12.5983 7.7817L11.1087 7.89028C11.0244 7.89643 10.9401 7.90232 10.8558 7.90796C10.9256 9.52327 10.8899 11.1417 10.7486 12.753C10.6811 13.5237 10.0358 14.1149 9.26215 14.1149H6.73788ZM6.68148 7.25017C6.56777 9.0374 6.589 10.8307 6.74504 12.6149H9.25499C9.41103 10.8307 9.43226 9.0374 9.31855 7.25017C9.3058 7.0498 9.37392 6.85269 9.50766 6.70295C9.64141 6.5532 9.8296 6.46334 10.0301 6.45346C10.3535 6.43753 10.6767 6.41779 10.9997 6.39425L12.0815 6.31539C11.1219 4.90209 9.92042 3.66784 8.5313 2.66999L8.00002 2.28835L7.46873 2.66999C6.07962 3.66784 4.87813 4.9021 3.91858 6.31539L5.00038 6.39425C5.32337 6.41779 5.64656 6.43753 5.9699 6.45346C6.17043 6.46334 6.35863 6.5532 6.49237 6.70295C6.62611 6.85269 6.69423 7.0498 6.68148 7.25017Z" fill="white"/>
<path d="M1.75 14.4876C1.75 14.0734 1.41421 13.7376 1 13.7376C0.585786 13.7376 0.25 14.0734 0.25 14.4876V16.4876C0.25 17.4541 1.0335 18.2376 2 18.2376H14C14.9665 18.2376 15.75 17.4541 15.75 16.4876V14.4876C15.75 14.0734 15.4142 13.7376 15 13.7376C14.5858 13.7376 14.25 14.0734 14.25 14.4876V16.4876C14.25 16.6257 14.1381 16.7376 14 16.7376H2C1.86193 16.7376 1.75 16.6257 1.75 16.4876V14.4876Z" fill="white"/>
</svg>
